<svg width="134" height="20" viewBox="0 0 134 20" fill="none" xmlns="http://www.w3.org/2000/svg">
<path d="M3.68844 19.4574C1.54195 20.6972 0 19.664 0 17.8262C0 15.8698 0 9.9996 0 9.9996C0 9.9996 0 4.12939 0 2.17297C0 0.335178 1.54099 -0.698041 3.68844 0.541821C7.03156 2.47241 17.06 8.26609 17.06 8.26609C18.3934 9.03622 18.3934 10.962 17.06 11.7322C17.06 11.7331 7.03156 17.5268 3.68844 19.4574Z" fill="#00C1FF"/>
<path d="M14.7265 19.4574C12.58 20.6972 11.0381 19.664 11.0381 17.8262C11.0381 15.8698 11.0381 9.9996 11.0381 9.9996C11.0381 9.9996 11.0381 4.12939 11.0381 2.17297C11.0381 0.335178 12.5791 -0.698041 14.7265 0.541821C17.996 2.43032 27.8044 8.09676 27.8044 8.09676C29.2689 8.94246 29.2689 11.0567 27.8044 11.9024C27.8034 11.9024 17.996 17.5689 14.7265 19.4574Z" fill="#BCEC30"/>
<mask id="mask0" mask-type="alpha" maskUnits="userSpaceOnUse" x="11" y="0" width="18" height="20">
<path d="M14.7265 19.4574C12.58 20.6972 11.0381 19.664 11.0381 17.8262C11.0381 15.8698 11.0381 9.9996 11.0381 9.9996C11.0381 9.9996 11.0381 4.12939 11.0381 2.17297C11.0381 0.335178 12.5791 -0.698041 14.7265 0.541821C17.996 2.43032 27.8044 8.09676 27.8044 8.09676C29.2689 8.94246 29.2689 11.0567 27.8044 11.9024C27.8035 11.9024 17.996 17.5689 14.7265 19.4574Z" fill="#6FE4FF"/>
</mask>
<g mask="url(#mask0)">
<g filter="url(#filter0_f)">
<path d="M3.68844 19.4593C1.54195 20.6992 0 19.666 0 17.8282C0 15.8718 0 10.0016 0 10.0016C0 10.0016 0 4.13134 0 2.17492C0 0.337131 1.54099 -0.696088 3.68844 0.543775C7.03156 2.47436 17.06 8.26804 17.06 8.26804C18.3934 9.03817 18.3934 10.964 17.06 11.7341C17.06 11.7351 7.03156 17.5287 3.68844 19.4593Z" fill="#99D100"/>
</g>
</g>
<path d="M36.077 13.4932L36.4509 12.6417C36.7059 12.0627 37.1648 11.9094 37.7427 12.3352C38.8475 13.1526 40.6661 13.7486 43.0967 13.7486C45.1703 13.7486 46.0541 13.2207 46.0541 12.5906C46.0541 11.8754 45.3233 11.688 44.1165 11.5348L41.363 11.1772C38.0486 10.7344 36.3829 9.54235 36.3829 7.46478C36.3829 5.23394 38.2016 3.46289 42.4168 3.46289C44.7624 3.46289 46.2751 3.82051 47.2609 4.19515C48.3487 4.62088 48.5017 4.9785 48.5017 5.86402V7.02202C48.5017 7.73725 48.2467 7.97566 47.5499 7.97566H46.768C46.0541 7.97566 45.8162 7.72022 45.8162 7.02202V6.64737C45.3573 6.49411 44.2185 6.27273 42.8927 6.27273C40.5642 6.27273 39.4424 6.69846 39.4424 7.41369C39.4424 7.9416 40.1222 8.24813 41.363 8.41842L44.0655 8.77603C47.3289 9.18474 49.0626 10.1724 49.0626 12.5565C49.0626 14.9747 46.768 16.5244 42.6718 16.5244C39.6633 16.5244 37.2498 15.5707 36.281 14.6852C35.941 14.3446 35.89 13.9189 36.077 13.4932Z" fill="white"/>
<path d="M65.9218 16.3191H64.5281C63.8482 16.3191 63.6273 16.2169 63.2873 15.706L60.6698 11.8404C60.2959 11.3125 60.0069 11.1762 59.2251 11.1762H56.6076V15.3654C56.6076 16.0807 56.3526 16.3191 55.6557 16.3191H54.6529C53.9391 16.3191 53.7011 16.0636 53.7011 15.3654V2.79781H52.7663C52.0524 2.79781 51.8145 2.54237 51.8145 1.84417V0.992703C51.8145 0.277473 52.0694 0.0390625 52.7663 0.0390625H55.6727C56.3866 0.0390625 56.6246 0.294502 56.6246 0.992703V8.34936H58.9701C59.752 8.34936 60.0239 8.23016 60.4149 7.68522L62.6074 4.29639C62.9644 3.76848 63.1853 3.6663 63.8652 3.6663H65.259C66.0238 3.6663 66.1598 4.27936 65.7349 4.90944L63.2873 8.62183C63.0324 8.97945 62.7264 9.35409 62.4375 9.66062C62.7434 9.91606 63.1683 10.3418 63.3383 10.5972L66.3977 15.11C66.8227 15.706 66.6697 16.3191 65.9218 16.3191Z" fill="white"/>
<path d="M70.8974 18.6353V17.8009C70.8974 17.0857 71.1524 16.8472 71.8493 16.8472H73.056C73.7869 16.8472 74.1438 16.694 74.4158 16.115L74.5688 15.7914L68.7898 4.84159C68.4329 4.17744 68.7218 3.68359 69.4697 3.68359H70.7785C71.4583 3.68359 71.7643 3.8028 72.0192 4.29665L74.4328 9.26921C74.9937 10.4102 75.6226 11.7214 76.1155 12.8624C76.6254 11.7555 77.2033 10.4783 77.7472 9.37138L80.2117 4.29665C80.4327 3.81983 80.7726 3.68359 81.4525 3.68359H82.7612C83.5261 3.68359 83.7981 4.19447 83.4411 4.84159L76.8633 17.3581C76.0985 18.8056 75.2316 19.606 73.26 19.606H71.8153C71.1354 19.606 70.8974 19.3506 70.8974 18.6353Z" fill="white"/>
<path d="M101.213 10.0021C101.213 14.0211 98.239 16.5244 94.2278 16.5244C92.4941 16.5244 91.1684 16.0986 90.2335 15.5707V19.0106C90.2335 19.7259 89.9786 19.9643 89.2817 19.9643H88.2789C87.565 19.9643 87.3271 19.7088 87.3271 19.0106V6.44302H86.3923C85.6784 6.44302 85.4404 6.18758 85.4404 5.48938V4.63791C85.4404 3.92268 85.6954 3.68427 86.3923 3.68427H88.8398C89.5537 3.68427 89.7916 3.93971 89.7916 4.63791V4.70603C90.7434 4.07595 92.1882 3.46289 94.2278 3.46289C98.239 3.47992 101.213 5.98323 101.213 10.0021ZM98.1881 10.0021C98.1881 7.6521 96.3014 6.34084 93.9558 6.34084C92.2732 6.34084 90.8964 7.05607 90.2505 7.63507V12.3862C90.9134 12.9652 92.2732 13.6805 93.9558 13.6805C96.3014 13.6634 98.1881 12.3522 98.1881 10.0021Z" fill="white"/>
<path d="M117.047 9.01499C117.047 9.73022 116.792 9.96863 116.095 9.96863H115.092C114.378 9.96863 114.14 9.76428 114.14 9.01499C114.14 7.14177 113.427 6.30733 111.727 6.30733C110.112 6.30733 108.769 7.31206 108.022 8.53817V15.3669C108.022 16.0822 107.767 16.3206 107.07 16.3206H106.067C105.353 16.3206 105.115 16.0651 105.115 15.3669V6.44357H104.18C103.466 6.44357 103.229 6.18813 103.229 5.48993V4.63846C103.229 3.92323 103.483 3.68482 104.18 3.68482H106.628C107.342 3.68482 107.58 3.94026 107.58 4.63846V5.45587C108.481 4.45114 109.857 3.48047 112.203 3.48047C115.636 3.48047 117.047 5.52398 117.047 9.01499Z" fill="white"/>
<path d="M118.852 10.0027C118.852 6.25625 122.013 3.48047 126.211 3.48047C130.375 3.48047 133.52 6.25625 133.52 10.0027C133.52 13.7662 130.358 16.5419 126.211 16.5419C122.013 16.5419 118.852 13.7662 118.852 10.0027ZM130.63 10.0027C130.63 7.82294 128.71 6.23922 126.211 6.23922C123.662 6.23922 121.741 7.83997 121.741 10.0027C121.741 12.1995 123.662 13.8002 126.211 13.8002C128.727 13.8002 130.63 12.1995 130.63 10.0027Z" fill="white"/>
<defs>
<filter id="filter0_f" x="-1.46124" y="-1.45929" width="20.9825" height="22.9217" filterUnits="userSpaceOnUse" color-interpolation-filters="sRGB">
<feFlood flood-opacity="0" result="BackgroundImageFix"/>
<feBlend mode="normal" in="SourceGraphic" in2="BackgroundImageFix" result="shape"/>
<feGaussianBlur stdDeviation="0.730621" result="effect1_foregroundBlur"/>
</filter>
</defs>
</svg>
