<svg width="134" height="20" fill="none" xmlns="http://www.w3.org/2000/svg"><path d="M3.688 19.457C1.542 20.697 0 19.664 0 17.827V10 2.173C0 .335 1.541-.698 3.688.542 7.032 2.472 17.06 8.266 17.06 8.266c1.333.77 1.333 2.696 0 3.466 0 .001-10.028 5.795-13.372 7.725z" fill="#00C1FF"/><path d="M14.726 19.457c-2.146 1.24-3.688.207-3.688-1.63V10 2.173c0-1.838 1.541-2.871 3.688-1.631l13.078 7.555c1.465.845 1.465 2.96 0 3.805l-13.077 7.555z" fill="#BCEC30"/><mask id="a" maskUnits="userSpaceOnUse" x="11" y="0" width="18" height="20"><path d="M14.726 19.457c-2.146 1.24-3.688.207-3.688-1.63V10 2.173c0-1.838 1.541-2.871 3.688-1.631l13.078 7.555c1.465.845 1.465 2.96 0 3.805l-13.077 7.555z" fill="#6FE4FF"/></mask><g filter="url(#filter0_f)" mask="url(#a)"><path d="M3.688 19.46C1.542 20.7 0 19.665 0 17.827v-7.826-7.827C0 .337 1.541-.696 3.688.544 7.032 2.474 17.06 8.268 17.06 8.268c1.333.77 1.333 2.696 0 3.466 0 .001-10.028 5.795-13.372 7.725z" fill="#99D100"/></g><path d="M36.077 13.493l.374-.851c.255-.58.714-.733 1.292-.307 1.104.818 2.923 1.414 5.354 1.414 2.073 0 2.957-.528 2.957-1.158 0-.716-.73-.903-1.938-1.056l-2.753-.358c-3.314-.443-4.98-1.635-4.98-3.712 0-2.231 1.819-4.002 6.034-4.002 2.345 0 3.858.358 4.844.732 1.088.426 1.24.784 1.24 1.669v1.158c0 .715-.254.954-.951.954h-.782c-.714 0-.952-.256-.952-.954v-.375c-.459-.153-1.598-.374-2.923-.374-2.329 0-3.45.425-3.45 1.14 0 .529.68.835 1.92 1.005l2.703.358c3.263.409 4.997 1.396 4.997 3.78 0 2.419-2.295 3.968-6.391 3.968-3.009 0-5.422-.953-6.391-1.839-.34-.34-.391-.766-.204-1.192zM65.922 16.32h-1.394c-.68 0-.9-.103-1.24-.614L60.67 11.84c-.374-.527-.663-.664-1.445-.664h-2.617v4.19c0 .715-.255.953-.952.953h-1.003c-.714 0-.952-.255-.952-.954V2.798h-.935c-.714 0-.951-.256-.951-.954V.993c0-.716.254-.954.951-.954h2.907c.714 0 .952.256.952.954v7.356h2.345c.782 0 1.054-.119 1.445-.664l2.192-3.389c.357-.528.578-.63 1.258-.63h1.394c.765 0 .9.613.476 1.243l-2.448 3.713c-.255.357-.56.732-.85 1.039.306.255.731.68.901.936l3.06 4.513c.425.596.272 1.21-.476 1.21zM70.897 18.635v-.834c0-.715.255-.954.952-.954h1.207c.73 0 1.088-.153 1.36-.732l.153-.324-5.78-10.95c-.356-.664-.067-1.157.68-1.157h1.31c.68 0 .985.119 1.24.613l2.414 4.972a85.215 85.215 0 011.682 3.593c.51-1.107 1.088-2.384 1.632-3.49l2.465-5.075c.22-.477.56-.613 1.24-.613h1.31c.764 0 1.036.51.68 1.158l-6.579 12.516c-.764 1.448-1.631 2.248-3.603 2.248h-1.445c-.68 0-.918-.255-.918-.97zM101.213 10.002c0 4.02-2.974 6.522-6.985 6.522-1.734 0-3.06-.425-3.994-.953v3.44c0 .715-.255.953-.952.953h-1.003c-.714 0-.952-.255-.952-.953V6.443h-.935c-.714 0-.952-.255-.952-.954v-.851c0-.715.255-.954.952-.954h2.448c.714 0 .952.256.952.954v.068c.951-.63 2.396-1.243 4.436-1.243 4.011.017 6.985 2.52 6.985 6.54zm-3.025 0c0-2.35-1.887-3.661-4.232-3.661-1.683 0-3.06.715-3.706 1.294v4.751c.663.58 2.023 1.295 3.706 1.295 2.345-.018 4.232-1.329 4.232-3.679zM117.047 9.015c0 .715-.255.954-.952.954h-1.003c-.714 0-.952-.205-.952-.954 0-1.873-.713-2.708-2.413-2.708-1.615 0-2.958 1.005-3.705 2.231v6.829c0 .715-.255.954-.952.954h-1.003c-.714 0-.952-.256-.952-.954V6.444h-.935c-.714 0-.951-.256-.951-.954v-.852c0-.715.254-.953.951-.953h2.448c.714 0 .952.255.952.953v.818c.901-1.005 2.277-1.976 4.623-1.976 3.433 0 4.844 2.044 4.844 5.535zM118.852 10.003c0-3.747 3.161-6.523 7.359-6.523 4.164 0 7.309 2.776 7.309 6.523 0 3.763-3.162 6.539-7.309 6.539-4.198 0-7.359-2.776-7.359-6.54zm11.778 0c0-2.18-1.92-3.764-4.419-3.764-2.549 0-4.47 1.601-4.47 3.764 0 2.197 1.921 3.797 4.47 3.797 2.516 0 4.419-1.6 4.419-3.797z" fill="#fff"/><defs><filter id="filter0_f" x="-1.461" y="-1.459" width="20.983" height="22.922" filterUnits="userSpaceOnUse" color-interpolation-filters="sRGB"><feFlood flood-opacity="0" result="BackgroundImageFix"/><feBlend in="SourceGraphic" in2="BackgroundImageFix" result="shape"/><feGaussianBlur stdDeviation=".731" result="effect1_foregroundBlur"/></filter></defs></svg>